<?xml version="1.0" encoding="UTF-8"?>
<svg xmlns="http://www.w3.org/2000/svg" xmlns:xlink="http://www.w3.org/1999/xlink" width="24" height="24" viewBox="0 0 24 24" version="1.1">
    <title>Public/ic_public_worldclock_filled</title>
    <defs>
        <path d="M15.8409593,18.0058178 C17.2171452,18.4148352 18.5014382,19.0373664 19.6555501,19.8360013 L19.4429415,19.693841 C17.7493746,21.3241062 15.5224269,22.404188 13.0497134,22.6464713 C14.2160796,21.2795673 15.1626771,19.7191122 15.8353771,18.0203484 L15.8353771,18.0203484 Z M8.13586911,18.0054029 C8.8087,19.7093776 9.75700908,21.2744869 10.9257354,22.6461147 C8.45397476,22.4038221 6.22749455,21.32383 4.53421457,19.693841 C5.62591794,18.9665678 6.83043094,18.3961988 8.11532768,18.0120388 L8.11532768,18.0120388 Z M11.988578,17.4481822 C12.9751723,17.4481822 13.9370481,17.5540147 14.8637042,17.7561952 C14.1767511,19.4547919 13.1974729,21.0038649 11.9889161,22.3410437 C10.7796831,21.0038649 9.80040489,19.4547919 9.1136841,17.7549464 C10.0401079,17.5540147 11.0019837,17.4481822 11.988578,17.4481822 Z M1.25000982,12.4483967 L6.99603159,12.4489365 C7.04390884,14.0551522 7.32134197,15.6037058 7.79825115,17.0628619 C6.29064409,17.5172068 4.88655114,18.2103697 3.62955181,19.0987873 L3.83769897,18.957438 C2.31921192,17.1932396 1.36370283,14.9306131 1.25000982,12.4483967 Z M22.7271462,12.4483967 C22.6134745,14.9301489 21.6583014,17.1923934 20.1403088,18.9564483 C18.9383947,18.1357204 17.6056616,17.4925392 16.1805068,17.0629153 C16.6558141,15.6037058 16.9332472,14.0551522 16.9811244,12.4489365 L16.9811244,12.4489365 Z M15.980655,12.4485338 C15.9325094,13.9666953 15.6660477,15.4297682 15.2112999,16.8075998 C14.1748436,16.5723767 13.0962144,16.4481822 11.988578,16.4481822 C10.8809416,16.4481822 9.80231242,16.5723767 8.76552766,16.8073943 C8.31110828,15.4297682 8.04464665,13.9666953 7.99650101,12.4485338 L7.99650101,12.4485338 Z M20.1394571,4.93892639 C21.6579949,6.70318388 22.6135171,8.96590275 22.7271576,11.4482169 L16.9811541,11.4484258 C16.9333621,9.84185353 16.6559125,8.2929608 16.1789049,6.8335025 C17.6862194,6.37924577 19.09006,5.68626371 20.3473362,4.79726408 Z M3.83667936,4.94177513 C5.03950108,5.76100099 6.37188998,6.40394443 7.79664919,6.83344913 C7.32124354,8.2929608 7.04379394,9.84185353 6.99600188,11.4484258 L6.99600188,11.4484258 L1.24999841,11.4482169 C1.3594528,9.05734177 2.24990784,6.87018178 3.67219329,5.13590717 Z M8.76585612,7.08876458 C9.80231242,7.32398775 10.8809416,7.44818221 11.988578,7.44818221 C13.0422792,7.44818221 14.0697293,7.33578832 15.0595939,7.12233512 L15.0595939,7.12233512 L15.2116284,7.08897008 C15.6661474,8.46689829 15.9326262,9.93031082 15.9806867,11.4488294 L15.9806867,11.4488294 L7.99646937,11.4488294 C8.04452978,9.93031082 8.31100863,8.46689829 8.76585612,7.08876458 Z M11.98914,1.55631615 C13.1979588,2.89326827 14.1769216,4.44199396 14.8634719,6.141418 C13.9370481,6.34234967 12.9751723,6.44818221 11.988578,6.44818221 C11.0019837,6.44818221 10.0401079,6.34234967 9.11345183,6.14016919 C9.76921172,4.51870237 10.6913517,3.03348844 11.8256178,1.73878145 L11.8256178,1.73878145 Z M13.0497134,1.24989306 C15.5224269,1.49217638 17.7493746,2.57225823 19.4429415,4.20252341 C18.3449909,4.93416592 17.1336508,5.5067082 15.8412869,5.89096154 C15.2135276,4.30113262 14.3459613,2.83218758 13.2833086,1.5284856 Z M10.9258898,1.25054198 C9.75700555,2.62188442 8.80872824,4.18695395 8.13619672,5.89054662 C6.76001083,5.48152926 5.4757178,4.85899803 4.32160589,4.06036308 L4.53421457,4.20252341 C6.21111148,2.58830508 8.41094075,1.51349238 10.8544969,1.25729075 Z" id="_path-1"/>
    </defs>
    <g id="_Public/ic_public_worldclock_filled" stroke="none" stroke-width="1" fill="none" fill-rule="evenodd">
        <mask id="_mask-2" fill="white">
            <use xlink:href="#_path-1"/>
        </mask>
        <use id="_Combined-Shape" fill="#000000" fill-rule="nonzero" xlink:href="#_path-1"/>
    </g>
</svg>