<?xml version="1.0" encoding="UTF-8"?>
<svg xmlns="http://www.w3.org/2000/svg" xmlns:xlink="http://www.w3.org/1999/xlink" width="24" height="24" viewBox="0 0 24 24" version="1.1">
    <title>ic_Edit Nickname</title>
    <defs>
        <path d="M21.5343344,14.0393049 C22.6019715,15.1288222 22.6724629,16.7999856 21.7967513,18.2087887 L21.6771662,18.3909884 L21.5769873,18.5297013 C21.472546,18.6692179 21.3511911,18.8189598 21.2120969,18.9799489 L21.067059,19.1447249 L20.8092437,19.4248194 L20.5249446,19.7194627 L20.2568677,19.9868325 L20.0793199,20.1562553 L19.8618441,20.3567866 L19.5099019,20.6725872 L18.9692171,21.1463863 L18.546099,21.511523 C17.9823092,21.9956542 17.1738659,22.0272037 16.5771007,21.6056336 L16.4526287,21.5083615 L15.6545347,20.8140345 L15.2867844,20.4874908 L14.8585722,20.0959059 L14.6967279,19.9410742 L14.477647,19.7220897 L14.239114,19.4759023 C13.8871412,19.1058612 13.6024312,18.7742227 13.3917927,18.4876156 C12.3248181,17.0358272 12.3225692,15.2058279 13.4656656,14.0393049 C14.4842301,12.9998659 16.0513774,12.8113844 17.2679076,13.5322816 L17.3453469,13.5797047 L17.4920383,13.6783776 L17.6570868,13.8051184 L17.6570868,13.8051184 L17.8164708,13.9447559 L17.8824021,14.0083845 L18.2747772,14.4121023 L18.4975712,14.6475182 L18.7259446,14.8980055 C18.9825632,15.1886086 18.9598869,15.6336843 18.6745134,15.8961196 C18.410858,16.1385826 18.0150775,16.1408967 17.7512995,15.919604 L17.6763903,15.8465246 L17.5718761,15.7303684 L17.3939181,15.5391721 L17.173795,15.30872 L16.917699,15.0452666 L16.8518246,14.98093 C16.1711032,14.3477902 15.1219391,14.3711344 14.4677449,15.0387357 C13.8788213,15.6397288 13.8556579,16.6084887 14.4093132,17.474723 L14.5198859,17.6358256 L14.6104863,17.7556151 L14.8438809,18.0387349 L14.9766456,18.1897014 L14.9766456,18.1897014 L15.1192939,18.3462259 L15.3177507,18.556386 L15.5340781,18.7775854 L15.7054048,18.9476278 L16.0032245,19.2262415 L16.3254206,19.5166325 L16.8333314,19.9640637 L17.3693333,20.4287398 C17.4263035,20.4778442 17.5019017,20.4907224 17.5605779,20.4725885 L17.6008567,20.4532548 L17.6320276,20.4296282 L18.0150654,20.0992377 L18.4427151,19.7258267 L18.7988806,19.4090634 L19.0832809,19.1493176 L19.2470673,18.9943951 L19.5151534,18.7279048 L19.8429187,18.3868358 C20.1091768,18.1015997 20.3228299,17.8497506 20.4763119,17.6409139 C21.1450275,16.7310203 21.1579865,15.6772908 20.5322551,15.0387357 C20.2195399,14.7196117 19.8099417,14.5413616 19.3843645,14.5230648 L19.3381467,14.4613343 L19.3381467,14.4613343 L19.2881271,14.4015674 L19.0518013,14.1422173 L18.8195093,13.8965764 L18.4202338,13.4856636 L18.3372927,13.4050851 L18.2117349,13.2946566 L18.3943036,13.2385378 C19.4972776,12.896959 20.7055424,13.1935275 21.5343344,14.0393049 Z M12,4 C9.92893219,4 8.25,5.67893219 8.25,7.75 C8.25,9.82106781 9.92893219,11.5 12,11.5 C14.0710678,11.5 15.75,9.82106781 15.75,7.75 C15.75,5.67893219 14.0710678,4 12,4 Z M6.823,14.9 L6.80547435,14.915649 L6.80547435,14.915649 L6.777,14.939 L6.732,14.978 L6.71183994,14.9969226 C6.50885388,15.1758731 6.31501543,15.3649578 6.13111601,15.5633851 C6.04589409,15.6553265 5.96243951,15.7497088 5.88121813,15.8460357 L5.851,15.882 L5.83244993,15.9044325 L5.83244993,15.9044325 L5.793,15.952 L5.78433938,15.9631603 L5.756,15.998 L5.71713634,16.0471313 L5.71713634,16.0471313 L5.691,16.08 L5.65104365,16.1320194 L5.65104365,16.1320194 L5.64,16.146 L5.6302285,16.1592465 L5.6302285,16.1592465 L5.59,16.213 L5.563,16.248 L5.55522067,16.2594044 L5.48013133,16.3630365 L5.48013133,16.3630365 L5.469,16.378 L5.439,16.42 L5.41057013,16.4622451 C5.38829762,16.4945263 5.36625618,16.5269792 5.34444822,16.5596015 L5.271,16.672 L5.33557151,16.5729088 L5.33557151,16.5729088 L5.27052882,16.672214 L5.27052882,16.672214 L5.2661041,16.6790877 L5.204,16.777 L5.19846396,16.7861345 C5.047825,17.0287633 4.90980681,17.2800467 4.78532668,17.5390675 L4.73202934,17.652238 L4.73202934,17.652238 L4.719,17.68 L4.691,17.742 L4.69,17.744 L4.68045695,17.766368 L4.663,17.805 L4.629,17.884 L4.607,17.938 L4.583,17.995 L4.59700058,17.9620311 C4.58104357,18.0008742 4.56538337,18.0398706 4.55002281,18.0790174 L4.48816138,18.2419049 L4.48816138,18.2419049 L4.476,18.274 L4.461,18.316 L4.43507254,18.391028 L4.43507254,18.391028 L4.44778306,18.3544556 C4.3283501,18.6954204 4.23135483,19.0469304 4.15856787,19.4072151 L4.151,19.445 L4.133,19.536 L4.11054284,19.6670745 L4.11054284,19.6670745 L4.10515591,19.6996061 L4.10515591,19.6996061 L4.101,19.725 L4.092,19.779 L4.087,19.81 L4.073,19.913 L4.068,19.949 L4.054,20.062 L4.05357395,20.0691678 L4.05299271,20.0741978 L4.046,20.132 L4.04,20.195 L4.03757636,20.2196216 L4.03757636,20.2196216 L4.034,20.257 L4.038,20.219 L4.01789302,20.4606653 L4.01789302,20.4606653 L4.00449615,20.7292297 L4,21 C4,21.3796958 3.71784612,21.693491 3.35177056,21.7431534 L3.25,21.75 C2.83578644,21.75 2.5,21.4142136 2.5,21 C2.5,20.8017352 2.50607356,20.604889 2.51804478,20.4096372 L2.52855605,20.2579161 L2.52855605,20.2579161 C2.53178145,20.2161521 2.53530682,20.1741335 2.53910476,20.1321936 C2.54330382,20.0858234 2.54783789,20.0395322 2.55270299,19.9933397 C2.5582937,19.9402537 2.56433112,19.8872204 2.57080335,19.8343214 C2.57522945,19.7981399 2.57988476,19.7618288 2.58474445,19.7255825 C2.62248988,19.4441375 2.67247922,19.1669444 2.73420205,18.8942028 L2.73986134,18.8693514 C2.76905594,18.741945 2.80081231,18.6155157 2.83507336,18.4901205 C2.85217045,18.427544 2.86990543,18.3651772 2.88825801,18.3030754 C2.8939179,18.2839215 2.89970667,18.264561 2.90555541,18.2452266 C2.92516226,18.1804172 2.94536937,18.1161259 2.96623752,18.0521332 C2.97851892,18.0144652 2.99118942,17.9764302 3.00409304,17.9385029 C3.01922811,17.8940156 3.03470817,17.8496087 3.05050718,17.8053533 C3.06548764,17.7633928 3.08070504,17.721702 3.09620501,17.6801488 C3.15856089,17.5129683 3.22558959,17.3477908 3.29705187,17.1850009 L3.30104812,17.1759105 C3.39334643,16.9662555 3.49300182,16.7605698 3.5996873,16.5591803 C3.62434624,16.5126305 3.64943176,16.4662177 3.67489032,16.4200395 C3.69015586,16.3923492 3.70561238,16.3646425 3.72120314,16.3370216 L3.79194704,16.2138532 L3.79194704,16.2138532 C3.81803335,16.1692106 3.84457099,16.1246392 3.8714611,16.0803053 L3.92194779,15.9980134 L3.92194779,15.9980134 C3.97010425,15.9204031 4.01946772,15.843357 4.0699022,15.767081 C4.14677058,15.6508325 4.22600667,15.5365383 4.30764761,15.4241035 C4.32815439,15.3958621 4.3487845,15.3677763 4.36956474,15.3398086 C4.46075243,15.2170872 4.55468861,15.0968146 4.65140658,14.9789114 C4.67271322,14.9529364 4.6943064,14.9268956 4.7160354,14.9009726 C4.75430972,14.8553102 4.79303497,14.8099791 4.83217627,14.7650198 C4.85541135,14.738333 4.87856416,14.7120342 4.9018595,14.6858651 C5.13856872,14.4199389 5.39021286,14.1672079 5.65531798,13.9291697 C5.70423282,13.885246 5.75385685,13.8416064 5.80393565,13.7984802 C5.82257194,13.7824328 5.84093031,13.7667455 5.85934898,13.7511272 C5.90741091,13.7103715 5.95596829,13.6700162 6.00493061,13.6301391 C6.03248016,13.6077021 6.06005308,13.5855 6.08775197,13.5634494 C6.11476629,13.5419445 6.14176953,13.5206857 6.16889029,13.4995707 C6.22779387,13.4537087 6.28744558,13.4083817 6.34764346,13.3637496 L6.39199059,13.3310678 L6.39199059,13.3310678 L6.54173894,13.2235859 L6.54173894,13.2235859 C6.56804553,13.2050884 6.59421847,13.1868805 6.62048689,13.1688013 C6.69480412,13.117648 6.77023357,13.0673 6.84641346,13.0180129 C6.88935033,12.9902627 6.92846924,12.9653846 6.96778104,12.9407862 C7.00617864,12.9167609 7.04460062,12.8930991 7.08320254,12.8697045 C7.10413392,12.8570193 7.1250553,12.8444501 7.14602886,12.8319594 C7.20875689,12.7946003 7.27211687,12.7578501 7.33593515,12.7218165 C7.35022757,12.7137473 7.36419452,12.7059086 7.37818323,12.6981041 C7.44289146,12.662 7.50833071,12.6264905 7.57422811,12.5917331 C7.60196974,12.5771 7.62997821,12.5625046 7.65806809,12.5480452 C7.70399595,12.5244049 7.74994456,12.5012253 7.79610521,12.4784097 C7.82142247,12.4658969 7.84663843,12.4535733 7.87191674,12.4413584 C8.21328547,12.2764038 8.56602471,12.1312711 8.92864014,12.0074546 C7.60862078,11.0543327 6.75,9.50243717 6.75,7.75 C6.75,4.85050506 9.10050506,2.5 12,2.5 C14.8994949,2.5 17.25,4.85050506 17.25,7.75 C17.25,10.5770076 15.0155511,12.8821316 12.2164046,12.995621 L12,13 C11.1663626,13 10.3625066,13.1275088 9.6068709,13.3640872 L9.38164526,13.4383144 C9.21949559,13.4944527 9.05971244,13.5556595 8.90248528,13.6217452 L8.84601276,13.645739 L8.84601276,13.645739 L8.828,13.653 L8.80558694,13.6632314 C8.7733972,13.6772663 8.74131772,13.6915069 8.70935015,13.7059514 L8.79004922,13.6700257 L8.68029249,13.7191514 L8.68029249,13.7191514 L8.575,13.767 L8.561,13.774 L8.512,13.798 L8.469,13.819 L8.38,13.863 L8.44316672,13.8322081 C8.21615963,13.9450717 7.99527368,14.0684019 7.78114037,14.2015672 C7.73111937,14.2326772 7.6817579,14.264134 7.63276851,14.2961132 L7.46198423,14.4107482 L7.46198423,14.4107482 L7.2940475,14.5298381 L7.25279489,14.560095 L7.25279489,14.560095 L7.18840458,14.6081402 L7.18840458,14.6081402 L7.21128552,14.5909527 L7.11926545,14.6608576 L7.11926545,14.6608576 L7.08410288,14.6881263 L7.037,14.725 L6.99168224,14.7613059 L6.99168224,14.7613059 L6.945,14.798 L6.987,14.765 L6.904,14.832 L6.823,14.9 Z" id="_path-1"/>
    </defs>
    <g id="_ic_Edit-Nickname" stroke="none" stroke-width="1" fill="none" fill-rule="evenodd">
        <mask id="_mask-2" fill="white">
            <use xlink:href="#_path-1"/>
        </mask>
        <use id="_形状结合" fill="#000000" fill-rule="nonzero" xlink:href="#_path-1"/>
    </g>
</svg>