<?xml version="1.0" encoding="UTF-8"?>
<svg xmlns="http://www.w3.org/2000/svg" xmlns:xlink="http://www.w3.org/1999/xlink" width="24" height="24" viewBox="0 0 24 24" version="1.1">
    <title>ic_Edit Nickname__filled</title>
    <defs>
        <path d="M15.5643815,13.0001201 C15.9901482,12.9960446 16.4021127,13.0957691 16.7694516,13.2840154 C16.9791448,13.4191151 17.201156,13.5803627 17.3727093,13.7309427 L17.4909325,13.8413023 L18.5884935,14.9430596 L18.6057846,14.9593695 C18.7530699,15.0898486 18.9780095,15.084412 19.1188236,14.9430596 C19.2443492,14.817054 19.2622815,14.6239428 19.1726203,14.4787642 L19.1188236,14.4107019 L18.53,13.82 L18.5602933,13.7909873 C19.0842859,13.2700012 19.8166586,12.9762865 20.5360237,13.0037143 L20.7154659,13.017316 C21.8760327,13.1497694 22.8183905,14.0714162 22.9753312,15.2229543 C23.0409849,15.7044082 22.9749585,16.1796085 22.7848089,16.6133619 C22.4698262,17.3315744 21.8393435,18.1637908 20.7154659,19.289078 C20.0791558,19.9261862 19.3304012,20.5917411 18.4692021,21.2857426 C18.2267457,21.4811273 17.8927731,21.5042006 17.6286157,21.354246 L17.5331444,21.2899009 L17.3815083,21.1696645 C16.9960564,20.8636595 16.7625101,20.6738776 16.6808695,20.6003187 C16.2032102,20.1699439 15.74844,19.7512542 15.3257006,19.3520272 C15.3034026,19.3309695 15.2812199,19.3099899 15.2591414,19.289078 C14.3172468,18.3969085 13.5052891,17.3019977 13.208537,16.6163408 C13.0807479,16.320342 13.0099015,15.9945766 13.0008895,15.6566803 C12.9631218,14.2291384 14.132992,13.0135644 15.5643815,13.0001201 Z M11,11.25 C12.4170916,11.25 13.7613544,11.5417484 14.9580796,12.0628202 C13.2559275,12.3804492 12,13.8709926 12,15.6922548 C12,15.9942669 12.0474729,16.4693945 12.1689384,16.8816406 C12.2279134,17.0920932 12.3109348,17.313047 12.4093891,17.5310845 C12.5099405,17.7537661 12.6102309,17.9406432 12.6904672,18.0754473 L12.8779874,18.3779822 L13.0144311,18.5843934 L13.1591604,18.7893035 L13.3154292,18.9962501 L13.4864916,19.2087704 L13.6756018,19.430402 L13.8860137,19.6646823 L14.1209816,19.9151486 L14.3837594,20.1853384 L14.449,20.25 L3,20.25 C2.48716416,20.25 2.06449284,19.8639598 2.00672773,19.3666211 L2,19.25 C2,14.7998158 6.05693232,11.25 11,11.25 Z M11,1.75 C13.4852814,1.75 15.5,3.76471863 15.5,6.25 C15.5,8.73528137 13.4852814,10.75 11,10.75 C8.51471863,10.75 6.5,8.73528137 6.5,6.25 C6.5,3.76471863 8.51471863,1.75 11,1.75 Z" id="_path-1"/>
    </defs>
    <g id="_ic_Edit-Nickname__filled" stroke="none" stroke-width="1" fill="none" fill-rule="evenodd">
        <mask id="_mask-2" fill="white">
            <use xlink:href="#_path-1"/>
        </mask>
        <use id="_形状结合" fill="#000000" fill-rule="nonzero" xlink:href="#_path-1"/>
    </g>
</svg>