<?xml version="1.0" encoding="UTF-8"?>
<svg xmlns="http://www.w3.org/2000/svg" xmlns:xlink="http://www.w3.org/1999/xlink" width="24" height="24" viewBox="0 0 24 24" version="1.1">
    <title>ic_edit company_filled</title>
    <defs>
        <path d="M11,2 C12.6568542,2 14,3.34314575 14,5 L14,19 C14,20.6471041 12.6726159,21.984181 11.0292177,21.9998607 C11.0194895,21.9999535 11.0097502,22 11,22 L5,22 C3.34314575,22 2,20.6568542 2,19 L2,5 C2,3.34314575 3.34314575,2 5,2 L11,2 Z M10.25,14.5 L5.75,14.5 C5.33578644,14.5 5,14.8357864 5,15.25 C5,15.6296958 5.28215388,15.943491 5.64822944,15.9931534 L5.75,16 L10.25,16 C10.6642136,16 11,15.6642136 11,15.25 C11,14.8357864 10.6642136,14.5 10.25,14.5 Z M15,6.335 L19.5587012,7.66166468 C20.4126838,7.91011631 21,8.69265308 21,9.582043 L21,20 C21,21.1045695 20.1045695,22 19,22 L13.6457598,22.000057 C14.476218,21.2671111 15,20.1947235 15,19 L15,18 L18.25,18 C18.6642136,18 19,17.6642136 19,17.25 C19,16.8357864 18.6642136,16.5 18.25,16.5 L15,16.5 L15,14.5 L18.25,14.5 C18.6642136,14.5 19,14.1642136 19,13.75 C19,13.3357864 18.6642136,13 18.25,13 L15,13 L15,6.335 Z M10.25,11 L5.75,11 C5.33578644,11 5,11.3357864 5,11.75 C5,12.1296958 5.28215388,12.443491 5.64822944,12.4931534 L5.75,12.5 L10.25,12.5 C10.6642136,12.5 11,12.1642136 11,11.75 C11,11.3357864 10.6642136,11 10.25,11 Z M10.25,7.5 L5.75,7.5 C5.33578644,7.5 5,7.83578644 5,8.25 C5,8.62969577 5.28215388,8.94349096 5.64822944,8.99315338 L5.75,9 L10.25,9 C10.6642136,9 11,8.66421356 11,8.25 C11,7.83578644 10.6642136,7.5 10.25,7.5 Z" id="_path-1"/>
    </defs>
    <g id="_ic_edit-company_filled" stroke="none" stroke-width="1" fill="none" fill-rule="evenodd">
        <mask id="_mask-2" fill="white">
            <use xlink:href="#_path-1"/>
        </mask>
        <use id="_形状结合" fill="#000000" fill-rule="nonzero" xlink:href="#_path-1"/>
    </g>
</svg>