<?xml version="1.0" encoding="UTF-8"?>
<svg xmlns="http://www.w3.org/2000/svg" xmlns:xlink="http://www.w3.org/1999/xlink" width="24" height="24" viewBox="0 0 24 24" version="1.1">
    <title>ic_edit company</title>
    <defs>
        <path d="M14,19 C14,20.3058822 13.1656226,21.4168852 12.0009007,21.8289758 L12.0009007,21.8289758 L11.8319441,21.883145 C11.7762876,21.899176 11.7199669,21.9136391 11.6630328,21.9264834 L11.7389321,21.9083129 C11.6841682,21.9221844 11.6288041,21.9345498 11.5728864,21.9453623 L11.6630328,21.9264834 C11.59228,21.9424451 11.5205799,21.9559067 11.4480302,21.9667705 L11.5728864,21.9453623 C11.5119014,21.9571546 11.4502581,21.9671 11.3880168,21.9751378 L11.4480302,21.9667705 C11.3852683,21.9761687 11.3218706,21.9836227 11.2579004,21.9890693 L11.3880168,21.9751378 C11.3235906,21.9834577 11.2585239,21.9897339 11.1928836,21.9938991 L11.1924443,21.9939269 L11,22 L11,22 L5,22 C3.34314575,22 2,20.6568542 2,19 L2,5 C2,3.34314575 3.34314575,2 5,2 L11,2 C12.6568542,2 14,3.34314575 14,5 L14,19 Z M15,6.141 L19.6151743,7.63332885 C20.4406754,7.90017932 21,8.6688082 21,9.53636867 L21,20 C21,21.1045695 20.1045695,22 19,22 L13.6457598,22.000057 C14.1076359,21.5924143 14.4746493,21.0797737 14.7094497,20.4994856 L18.75,20.5 C19.1296958,20.5 19.443491,20.2178461 19.4931534,19.8517706 L19.5,19.75 L19.5,9.88934406 C19.5,9.49394599 19.2676597,9.13976782 18.9141688,8.9791044 L18.8045982,8.93686311 L15,7.72 L15,6.141 Z M11,3.5 L5,3.5 C4.22030388,3.5 3.57955132,4.09488808 3.50686658,4.85553999 L3.5,5 L3.5,19 C3.5,19.7796961 4.09488808,20.4204487 4.85553999,20.4931334 L5,20.5 L11,20.5 C11.7796961,20.5 12.4204487,19.9051119 12.4931334,19.14446 L12.5,19 L12.5,5 C12.5,4.17157288 11.8284271,3.5 11,3.5 Z M15,16.5 L18.25,16.5 C18.6642136,16.5 19,16.8357864 19,17.25 C19,17.6642136 18.6642136,18 18.25,18 L15,18 L15,16.5 Z M10.25,14.5 C10.6642136,14.5 11,14.8357864 11,15.25 C11,15.6642136 10.6642136,16 10.25,16 L5.75,16 C5.33578644,16 5,15.6642136 5,15.25 C5,14.8357864 5.33578644,14.5 5.75,14.5 L10.25,14.5 Z M15,13 L18.25,13 C18.6642136,13 19,13.3357864 19,13.75 C19,14.1642136 18.6642136,14.5 18.25,14.5 L15,14.5 L15,13 Z M10.25,11 C10.6642136,11 11,11.3357864 11,11.75 C11,12.1642136 10.6642136,12.5 10.25,12.5 L5.75,12.5 C5.33578644,12.5 5,12.1642136 5,11.75 C5,11.3357864 5.33578644,11 5.75,11 L10.25,11 Z M10.25,7.5 C10.6642136,7.5 11,7.83578644 11,8.25 C11,8.66421356 10.6642136,9 10.25,9 L5.75,9 C5.33578644,9 5,8.66421356 5,8.25 C5,7.83578644 5.33578644,7.5 5.75,7.5 L10.25,7.5 Z" id="_path-1"/>
    </defs>
    <g id="_ic_edit-company" stroke="none" stroke-width="1" fill="none" fill-rule="evenodd">
        <mask id="_mask-2" fill="white">
            <use xlink:href="#_path-1"/>
        </mask>
        <use id="_形状结合" fill="#000000" fill-rule="nonzero" xlink:href="#_path-1"/>
    </g>
</svg>