<?xml version="1.0" encoding="UTF-8"?>
<svg xmlns="http://www.w3.org/2000/svg" xmlns:xlink="http://www.w3.org/1999/xlink" width="24" height="24" version="1.1" viewBox="0 0 24 24">
  <defs>
    <path id="_uxs-a" d="M18.9536914,3.28426541 C19.6055433,3.63287959 20.1171204,4.14445674 20.4657346,4.79630859 C20.8143488,5.44816044 21,6.09473292 21,7.8777704 L21,17.6222296 C21,19.4052671 20.8143488,20.0518396 20.4657346,20.7036914 C20.1171204,21.3555433 19.6055433,21.8671204 18.9536914,22.2157346 C18.3018396,22.5643488 17.6552671,22.75 15.8722296,22.75 L8.1277704,22.75 C6.34473292,22.75 5.69816044,22.5643488 5.04630859,22.2157346 C4.39445674,21.8671204 3.88287959,21.3555433 3.53426541,20.7036914 C3.20399934,20.0861475 3.01999365,19.473342 3.0015395,17.894484 L3,7.8777704 C3,6.09473292 3.18565122,5.44816044 3.53426541,4.79630859 C3.88287959,4.14445674 4.39445674,3.63287959 5.04630859,3.28426541 C5.35303568,3.12022597 5.65859383,2.99226892 6.08193691,2.90275808 C6.02569897,3.18535296 6,3.49854144 6,3.86426454 L6,4.38573546 L6.00184118,4.48966414 C5.91667122,4.5243261 5.83536283,4.56331513 5.75370688,4.6069852 C5.36325774,4.81579969 5.06579969,5.11325774 4.8569852,5.50370688 C4.62591204,5.93577614 4.52590012,6.35811465 4.50450765,7.39429363 L4.5,7.8777704 L4.5,17.6222296 L4.50450765,18.1057064 C4.52590012,19.1418853 4.62591204,19.5642239 4.8569852,19.9962931 C5.06579969,20.3867423 5.36325774,20.6842003 5.75370688,20.8930148 C6.18577614,21.124088 6.60811465,21.2240999 7.64429363,21.2454923 L8.1277704,21.25 L15.8722296,21.25 L16.3557064,21.2454923 C17.3918853,21.2240999 17.8142239,21.124088 18.2462931,20.8930148 C18.6367423,20.6842003 18.9342003,20.3867423 19.1430148,19.9962931 C19.374088,19.5642239 19.4740999,19.1418853 19.4954923,18.1057064 L19.5,17.6222296 L19.5,7.8777704 L19.4954923,7.39429363 C19.4740999,6.35811465 19.374088,5.93577614 19.1430148,5.50370688 C18.9342003,5.11325774 18.6367423,4.81579969 18.2462931,4.6069852 C18.1649587,4.56348706 18.083969,4.52463317 17.9991646,4.49007373 L18,4.38573546 L18,4.38573546 L18,3.86426454 C18,3.49810398 17.9742395,3.18460378 17.9177768,2.90163438 C18.3407993,2.99201483 18.6466597,3.12006307 18.9536914,3.28426541 Z M17.3440386,10.2196699 C17.6264713,10.5021027 17.6365582,10.9537494 17.3742992,11.2482689 L17.3440386,11.2803301 L12.1442911,16.4800776 C11.4751115,17.1492572 10.3988189,17.1631984 9.71267619,16.5219013 L9.66941738,16.4800776 L7.21966991,14.0303301 C6.9267767,13.7374369 6.9267767,13.2625631 7.21966991,12.9696699 C7.50210266,12.6872372 7.95374943,12.6771503 8.2482689,12.9394093 L8.28033009,12.9696699 L10.3765242,15.065864 C10.6589569,15.3482967 11.1106037,15.3583836 11.4051231,15.0961246 L11.4371843,15.065864 L16.2833784,10.2196699 C16.5762716,9.9267767 17.0511454,9.9267767 17.3440386,10.2196699 Z M14.6357355,1.5 C15.2877094,1.5 15.6509198,1.59282561 15.9768457,1.7671327 C16.3027716,1.9414398 16.5585602,2.19722837 16.7328673,2.5231543 C16.9071744,2.84908022 17,3.21229059 17,3.86426454 L17,4.38573546 C17,5.03770941 16.9071744,5.40091978 16.7328673,5.7268457 C16.5585602,6.05277163 16.3027716,6.3085602 15.9768457,6.4828673 C15.6509198,6.65717439 15.2877094,6.75 14.6357355,6.75 L9.36426454,6.75 C8.71229059,6.75 8.34908022,6.65717439 8.0231543,6.4828673 C7.69722837,6.3085602 7.4414398,6.05277163 7.2671327,5.7268457 C7.09282561,5.40091978 7,5.03770941 7,4.38573546 L7,3.86426454 C7,3.21229059 7.09282561,2.84908022 7.2671327,2.5231543 C7.4414398,2.19722837 7.69722837,1.9414398 8.0231543,1.7671327 C8.34908022,1.59282561 8.71229059,1.5 9.36426454,1.5 L14.6357355,1.5 Z M9.36426454,3 C8.98133588,3 8.84453879,3.02889201 8.73055258,3.0898525 C8.66602937,3.12435989 8.62435989,3.16602937 8.5898525,3.23055258 C8.53651207,3.33029051 8.50772407,3.44749303 8.50136052,3.73176753 L8.5,4.38573546 C8.5,4.76866412 8.52889201,4.90546121 8.5898525,5.01944742 C8.62435989,5.08397063 8.66602937,5.12564011 8.73055258,5.1601475 C8.81604224,5.20586787 8.91436302,5.23354971 9.11972833,5.24453312 L9.36426454,5.25 L14.6357355,5.25 L14.8802717,5.24453312 C15.085637,5.23354971 15.1839578,5.20586787 15.2694474,5.1601475 C15.3339706,5.12564011 15.3756401,5.08397063 15.4101475,5.01944742 C15.4558679,4.93395776 15.4835497,4.83563698 15.4945331,4.63027167 L15.5,4.38573546 L15.5,3.86426454 L15.4945331,3.61972833 C15.4835497,3.41436302 15.4558679,3.31604224 15.4101475,3.23055258 C15.3756401,3.16602937 15.3339706,3.12435989 15.2694474,3.0898525 C15.1697095,3.03651207 15.052507,3.00772407 14.7682325,3.00136052 L9.36426454,3 Z"/>
  </defs>
  <g fill="none" fill-rule="evenodd" stroke="none" stroke-width="1">
    <mask id="_uxs-b" fill="#fff">
      <use xlink:href="#_uxs-a"/>
    </mask>
    <g fill="#000" fill-opacity=".9" mask="url(#_uxs-b)">
      <rect width="24" height="24" x="0" y="0"/>
    </g>
  </g>
</svg>