<?xml version="1.0" encoding="UTF-8"?>
<!--Generator: Apple Native CoreSVG 232.5-->
<!DOCTYPE svg
PUBLIC "-//W3C//DTD SVG 1.1//EN"
       "http://www.w3.org/Graphics/SVG/1.1/DTD/svg11.dtd">
<svg version="1.1" xmlns="http://www.w3.org/2000/svg" xmlns:xlink="http://www.w3.org/1999/xlink" width="17.5078" height="17.168">
 <g>
  <rect height="17.168" opacity="0" width="17.5078" x="0" y="0"/>
  <path d="M16.0547 1.11328C15.0586 0.128906 13.6523 0 12.1523 0L5.00391 0C3.50391 0 2.09766 0.128906 1.10156 1.11328C0.117188 2.10938 0 3.50391 0 5.00391L0 12.1523C0 13.6641 0.117188 15.0469 1.10156 16.043C2.09766 17.0273 3.49219 17.1562 5.00391 17.1562L12.1523 17.1562C13.6523 17.1562 15.0586 17.0273 16.0547 16.043C17.0391 15.0469 17.1562 13.6641 17.1562 12.1523L17.1562 5.00391C17.1562 3.49219 17.0391 2.10938 16.0547 1.11328ZM15.4688 4.74609L15.4688 12.4102C15.4688 13.2656 15.375 14.2617 14.8242 14.8125C14.2734 15.3633 13.2656 15.4688 12.4102 15.4688L4.74609 15.4688C3.89062 15.4688 2.88281 15.3633 2.33203 14.8125C1.78125 14.2617 1.6875 13.2656 1.6875 12.4102L1.6875 4.75781C1.6875 3.89062 1.78125 2.89453 2.33203 2.34375C2.88281 1.79297 3.89062 1.6875 4.75781 1.6875L12.4102 1.6875C13.2656 1.6875 14.2734 1.79297 14.8242 2.34375C15.375 2.89453 15.4688 3.89062 15.4688 4.74609Z" fill="#000000" fill-opacity="0.85"/>
  <path d="M8.39062 10.5C8.91797 10.5 9.23438 10.1719 9.23438 9.76172C9.23438 9.73828 9.23438 9.71484 9.23438 9.69141C9.23438 9.19922 9.55078 8.88281 10.1602 8.47266C11.0391 7.91016 11.7305 7.37109 11.7305 6.21094C11.7305 4.59375 10.2891 3.77344 8.69531 3.77344C7.07812 3.77344 6.01172 4.5 5.73047 5.30859C5.67188 5.47266 5.64844 5.63672 5.64844 5.80078C5.64844 6.25781 6.01172 6.50391 6.35156 6.50391C6.70312 6.50391 6.92578 6.35156 7.125 6.10547L7.32422 5.87109C7.71094 5.37891 8.13281 5.17969 8.63672 5.17969C9.39844 5.17969 9.91406 5.625 9.91406 6.29297C9.91406 6.91406 9.50391 7.19531 8.71875 7.73438C8.09766 8.17969 7.55859 8.67188 7.55859 9.60938C7.55859 9.62109 7.55859 9.65625 7.55859 9.66797C7.55859 10.2188 7.85156 10.5 8.39062 10.5ZM8.36719 13.3125C8.94141 13.3125 9.44531 12.8555 9.44531 12.2812C9.44531 11.6953 8.95312 11.25 8.36719 11.25C7.78125 11.25 7.28906 11.707 7.28906 12.2812C7.28906 12.8438 7.79297 13.3125 8.36719 13.3125Z" fill="#000000" fill-opacity="0.85"/>
 </g>
</svg>
